<svg xmlns="http://www.w3.org/2000/svg" width="25" height="24" viewBox="0 0 25 24" fill="none">
  <path d="M11.3889 9H13.3903C13.6557 9 13.9102 9.10536 14.0979 9.29289C14.2855 9.48043 14.391 9.73478 14.391 10C14.391 10.2652 14.4964 10.5196 14.684 10.7071C14.8717 10.8946 15.1262 11 15.3916 11C15.657 11 15.9116 10.8946 16.0992 10.7071C16.2869 10.5196 16.3923 10.2652 16.3923 10C16.3923 9.20435 16.0761 8.44129 15.5131 7.87868C14.9501 7.31607 14.1865 7 13.3903 7H11.3889C10.5927 7 9.82907 7.31607 9.26608 7.87868C8.70307 8.44129 8.38679 9.20435 8.38679 10V14C8.38679 14.7956 8.70307 15.5587 9.26608 16.1213C9.82907 16.6839 10.5927 17 11.3889 17H13.3903C14.1865 17 14.9501 16.6839 15.5131 16.1213C16.0761 15.5587 16.3923 14.7956 16.3923 14C16.3923 13.7348 16.2869 13.4804 16.0992 13.2929C15.9116 13.1054 15.657 13 15.3916 13C15.1262 13 14.8717 13.1054 14.684 13.2929C14.4964 13.4804 14.391 13.7348 14.391 14C14.391 14.2652 14.2855 14.5196 14.0979 14.7071C13.9102 14.8946 13.6557 15 13.3903 15H11.3889C11.1235 15 10.8689 14.8946 10.6813 14.7071C10.4936 14.5196 10.3882 14.2652 10.3882 14V10C10.3882 9.73478 10.4936 9.48043 10.6813 9.29289C10.8689 9.10536 11.1235 9 11.3889 9ZM12.3896 2C10.4104 2 8.47564 2.58649 6.83 3.6853C5.18437 4.78412 3.90175 6.3459 3.14435 8.17317C2.38695 10.0004 2.18878 12.0111 2.5749 13.9509C2.96102 15.8907 3.91409 17.6725 5.31359 19.0711C6.71308 20.4696 8.49615 21.422 10.4373 21.8079C12.3785 22.1937 14.3905 21.9957 16.2191 21.2388C18.0476 20.4819 19.6105 19.2002 20.71 17.5557C21.8096 15.9112 22.3965 13.9778 22.3965 12C22.3965 10.6868 22.1377 9.38642 21.6348 8.17317C21.1319 6.95991 20.3948 5.85752 19.4655 4.92893C18.5363 4.00035 17.4332 3.26375 16.2191 2.7612C15.005 2.25866 13.7037 2 12.3896 2ZM12.3896 20C10.8062 20 9.25842 19.5308 7.94192 18.6518C6.62541 17.7727 5.59932 16.5233 4.99339 15.0615C4.38747 13.5997 4.22894 11.9911 4.53783 10.4393C4.84673 8.88743 5.60918 7.46197 6.72878 6.34315C7.84838 5.22433 9.27483 4.4624 10.8278 4.15372C12.3807 3.84504 13.9903 4.00346 15.4532 4.60896C16.916 5.21447 18.1663 6.23984 19.0459 7.55544C19.9256 8.87103 20.3951 10.4177 20.3951 12C20.3951 14.1217 19.5517 16.1566 18.0503 17.6569C16.549 19.1571 14.5128 20 12.3896 20Z" fill="white" fill-opacity="0.8"/>
</svg>