<svg xmlns="http://www.w3.org/2000/svg" width="25" height="24" viewBox="0 0 25 24" fill="none">
  <path d="M17.8125 2H7.80557C5.04222 2 2.80209 4.23858 2.80209 7V17C2.80209 19.7614 5.04222 22 7.80557 22H17.8125C20.5759 22 22.816 19.7614 22.816 17V7C22.816 4.23858 20.5759 2 17.8125 2Z" stroke="white" stroke-opacity="0.8" stroke-width="2" stroke-linecap="round" stroke-linejoin="round"/>
  <path d="M16.8118 11.3701C16.9353 12.2023 16.7931 13.0523 16.4053 13.7991C16.0175 14.5459 15.404 15.1515 14.6519 15.5297C13.8999 15.908 13.0476 16.0397 12.2164 15.906C11.3852 15.7723 10.6173 15.3801 10.0219 14.7852C9.4266 14.1903 9.03415 13.4229 8.90039 12.5923C8.76663 11.7616 8.89839 10.91 9.27691 10.1584C9.65543 9.40691 10.2615 8.7938 11.0088 8.4063C11.7561 8.0188 12.6066 7.87665 13.4395 8.00006C14.289 8.12594 15.0755 8.52152 15.6827 9.12836C16.29 9.73521 16.6858 10.5211 16.8118 11.3701Z" stroke="white" stroke-opacity="0.8" stroke-width="2" stroke-linecap="round" stroke-linejoin="round"/>
  <path d="M18.3128 6.5H18.3228" stroke="white" stroke-opacity="0.8" stroke-width="2" stroke-linecap="round" stroke-linejoin="round"/>
</svg>