<svg xmlns="http://www.w3.org/2000/svg" width="25" height="24" viewBox="0 0 25 24" fill="none">
  <path d="M16.7841 8C18.3765 8 19.9037 8.63214 21.0297 9.75736C22.1557 10.8826 22.7882 12.4087 22.7882 14V21H18.7855V14C18.7855 13.4696 18.5746 12.9609 18.1993 12.5858C17.8239 12.2107 17.3149 12 16.7841 12C16.2533 12 15.7442 12.2107 15.3689 12.5858C14.9935 12.9609 14.7827 13.4696 14.7827 14V21H10.7799V14C10.7799 12.4087 11.4125 10.8826 12.5385 9.75736C13.6645 8.63214 15.1917 8 16.7841 8V8Z" stroke="white" stroke-opacity="0.8" stroke-width="2" stroke-linecap="round" stroke-linejoin="round"/>
  <path d="M6.77713 9H2.77435V21H6.77713V9Z" stroke="white" stroke-opacity="0.8" stroke-width="2" stroke-linecap="round" stroke-linejoin="round"/>
  <path d="M4.77574 6C5.88108 6 6.77713 5.10457 6.77713 4C6.77713 2.89543 5.88108 2 4.77574 2C3.67041 2 2.77435 2.89543 2.77435 4C2.77435 5.10457 3.67041 6 4.77574 6Z" stroke="white" stroke-opacity="0.8" stroke-width="2" stroke-linecap="round" stroke-linejoin="round"/>
</svg>