<svg xmlns="http://www.w3.org/2000/svg" width="25" height="24" viewBox="0 0 25 24" fill="none">
  <path d="M21.5201 10C21.5201 17 12.5139 23 12.5139 23C12.5139 23 3.50764 17 3.50764 10C3.50764 7.61305 4.45651 5.32387 6.14551 3.63604C7.83451 1.94821 10.1253 1 12.5139 1C14.9025 1 17.1933 1.94821 18.8823 3.63604C20.5713 5.32387 21.5201 7.61305 21.5201 10Z" stroke="white" stroke-opacity="0.8" stroke-width="2" stroke-linecap="round" stroke-linejoin="round"/>
  <path d="M12.5139 13C14.1719 13 15.516 11.6569 15.516 10C15.516 8.34315 14.1719 7 12.5139 7C10.8559 7 9.5118 8.34315 9.5118 10C9.5118 11.6569 10.8559 13 12.5139 13Z" stroke="white" stroke-opacity="0.8" stroke-width="2" stroke-linecap="round" stroke-linejoin="round"/>
</svg>