<svg xmlns="http://www.w3.org/2000/svg" width="25" height="24" viewBox="0 0 25 24" fill="none">
  <path d="M22.5215 16.9201V19.9201C22.5227 20.1986 22.4656 20.4743 22.3539 20.7294C22.2423 20.9846 22.0785 21.2137 21.8732 21.402C21.6678 21.5902 21.4253 21.7336 21.1613 21.8228C20.8973 21.912 20.6176 21.9452 20.34 21.9201C17.2607 21.5857 14.3028 20.5342 11.704 18.8501C9.28617 17.3148 7.23626 15.2663 5.69985 12.8501C4.00866 10.2413 2.95619 7.27109 2.62772 4.1801C2.60272 3.90356 2.6356 3.62486 2.72429 3.36172C2.81298 3.09859 2.95552 2.85679 3.14285 2.65172C3.33017 2.44665 3.55817 2.28281 3.81234 2.17062C4.0665 2.05843 4.34125 2.00036 4.6191 2.0001H7.62119C8.10683 1.99532 8.57764 2.16718 8.94587 2.48363C9.31409 2.80008 9.55461 3.23954 9.62258 3.7201C9.74929 4.68016 9.98428 5.62282 10.3231 6.5301C10.4577 6.88802 10.4868 7.27701 10.407 7.65098C10.3272 8.02494 10.1418 8.36821 9.87275 8.6401L8.60187 9.9101C10.0264 12.4136 12.1008 14.4865 14.606 15.9101L15.8769 14.6401C16.149 14.3712 16.4925 14.1859 16.8667 14.1062C17.2409 14.0264 17.6302 14.0556 17.9884 14.1901C18.8963 14.5286 19.8396 14.7635 20.8003 14.8901C21.2864 14.9586 21.7304 15.2033 22.0477 15.5776C22.3651 15.9519 22.5337 16.4297 22.5215 16.9201Z" stroke="white" stroke-opacity="0.8" stroke-width="2" stroke-linecap="round" stroke-linejoin="round"/>
</svg>