<svg xmlns="http://www.w3.org/2000/svg" width="25" height="24" viewBox="0 0 25 24" fill="none">
  <g clip-path="url(#clip0_87_137)">
    <path d="M23.8445 3.00005C22.8862 3.67552 21.8252 4.19216 20.7023 4.53005C20.0996 3.83756 19.2986 3.34674 18.4077 3.12397C17.5168 2.90121 16.5789 2.95724 15.7209 3.2845C14.8629 3.61176 14.1262 4.19445 13.6104 4.95376C13.0945 5.71308 12.8245 6.61238 12.8368 7.53005V8.53005C11.0782 8.57561 9.33568 8.18586 7.76432 7.39549C6.19296 6.60513 4.8416 5.43868 3.83058 4.00005C3.83058 4.00005 -0.172196 13 8.83405 17C6.77315 18.398 4.31808 19.099 1.82919 19C10.8354 24 21.8431 19 21.8431 7.50005C21.8422 7.2215 21.8154 6.94364 21.763 6.67005C22.7843 5.66354 23.5051 4.39276 23.8445 3.00005V3.00005Z" stroke="white" stroke-opacity="0.8" stroke-width="2" stroke-linecap="round" stroke-linejoin="round"/>
  </g>
  <defs>
    <clipPath id="clip0_87_137">
      <rect width="24.0167" height="24" fill="white" transform="translate(0.828491)"/>
    </clipPath>
  </defs>
</svg>